<svg id="Layer_1" data-name="Layer 1" xmlns="http://www.w3.org/2000/svg" viewBox="0 0 749.41 164.3"><defs><style>.cls-1,.cls-3{font-size:101.73px;font-family:Montserrat-Bold, Montserrat;font-weight:700;}.cls-1{fill:#ffc63a;}.cls-2{letter-spacing:-0.03em;}.cls-13,.cls-3{fill:#171c3c;}.cls-4{letter-spacing:-0.01em;}.cls-5{fill:#2e1010;}.cls-6{fill:#131313;opacity:0.05;}.cls-7{fill:#fff;}.cls-8{fill:#ebf7f8;}.cls-9{fill:#ffc72e;}.cls-10{opacity:0.42;}.cls-11{fill:#ed2024;}.cls-12{fill:#68bd45;}</style></defs><title>eye buddy</title><text class="cls-1" transform="translate(356.14 134.92)">BUD<tspan class="cls-2" x="242.01" y="0">D</tspan><tspan x="322.98" y="0">Y</tspan></text><text class="cls-3" transform="translate(0 137.24)"><tspan class="cls-4">EY</tspan><tspan x="135.6" y="0">E</tspan></text><path class="cls-5" d="M353.05,149.75a37.7,37.7,0,0,0,5.21-.54h-.08A25.15,25.15,0,0,0,365,147l-.07.08a22.46,22.46,0,0,0,8.94-8.19c.28-.44.56-.89.82-1.35.14-.24.27-.48.4-.73s.13-.23.19-.34,0,0,0,0,.09-.17.14-.26a1.18,1.18,0,0,1,1.48-.7,1.17,1.17,0,0,1,.7,1.48,32.92,32.92,0,0,1-3.2,5.16c-4.72,6.59-13,9.48-20.89,9.6-.65,0-1.39-.36-1.36-1.16a.91.91,0,0,1,.93-.86Z" transform="translate(-21.53 -45.51)"/><path class="cls-5" d="M376.44,135.37a3.56,3.56,0,0,0,.86.27,4.33,4.33,0,0,0,.88.05,4.72,4.72,0,0,0,4-2.6,4.36,4.36,0,0,0,.26-.77,3.21,3.21,0,0,0-1.93-4c-2.45-.78-4.41,1.81-4.53,4.21a5.17,5.17,0,0,0,0,1.18,4.52,4.52,0,0,0,.26,1.07C376.31,135,376.37,135.15,376.44,135.37Z" transform="translate(-21.53 -45.51)"/><path class="cls-5" d="M376.79,134.39a3.83,3.83,0,0,0,.65.22c-.19,0,.16,0,.16,0l.33,0s.37,0,.13,0l.24,0c.17,0,.33-.06.5-.09l.24-.07s.31-.1.06,0l.47-.19.37-.19.22-.13c-.22.13.08-.07.12-.1a3.9,3.9,0,0,0,.38-.33l.12-.12c-.17.18,0,0,0-.06a4,4,0,0,0,.29-.43s.14-.29.05-.08l.15-.37a4.34,4.34,0,0,0,.14-.48,2.33,2.33,0,0,0,.07-.25c-.06.26,0,0,0-.06a2.79,2.79,0,0,0,0-.5c0,.27,0,0,0,0a2,2,0,0,0,0-.24l-.06-.24c-.07-.26.09.19,0,0l-.21-.44c-.12-.23.13.16,0,0a1,1,0,0,0-.13-.16.64.64,0,0,0-.13-.15l-.11-.12c.1.09.11.1,0,0a3.51,3.51,0,0,0-.4-.27c-.21-.14.2.06,0,0l-.19-.08-.2,0c-.25-.08.22,0,0,0s-.42-.1-.52,0h.13l-.14,0-.22,0-.13,0c-.24.06.2-.09,0,0s-.26.11-.38.18-.27.1,0,0a1.24,1.24,0,0,0-.23.17l-.28.25-.15.16c.18-.2,0,0,0,0a4.89,4.89,0,0,0-.51.77c.13-.23,0,0,0,0l-.12.29a4.56,4.56,0,0,0-.18.52.83.83,0,0,1,0,.15l0,.16V132c0,.18-.05.36-.07.54s0,.48,0,.72c0,0,0,.21,0,.05,0,.14,0,.28.05.42a10.15,10.15,0,0,0,.42,1.44,1.05,1.05,0,0,1-.82,1.23,1.08,1.08,0,0,1-1.22-.83l-.05-.16c-.06-.17,0,.12,0,0s-.09-.25-.13-.37a5.43,5.43,0,0,1-.23-.88,6.22,6.22,0,0,1-.06-1.67,6.37,6.37,0,0,1,.56-2.27,4.87,4.87,0,0,1,3.6-3,4,4,0,0,1,4.21,2.55,5.12,5.12,0,0,1-1.26,5.32,5.68,5.68,0,0,1-6,1.29,1.06,1.06,0,0,1-.63-1.33A1.07,1.07,0,0,1,376.79,134.39Z" transform="translate(-21.53 -45.51)"/><path class="cls-5" d="M374.94,132.14a4.4,4.4,0,0,0-.05-.51.78.78,0,0,0,0-.14l0,.09c.05,0,.27.26.31.23l-.09,0c-.06,0,0,0,0,0h-.07c-.18,0,.07,0,.07,0h-.07c-.09,0-.09,0,0,0s.08,0,0,0l-.09,0s.2-.16.22-.19c-.11.15.1-.15,0-.05s0-.11,0,0a1.94,1.94,0,0,1,0,.24c0,.09,0,.11,0,0a3.69,3.69,0,0,0,.08.46c0,.08,0,.12,0,0a.85.85,0,0,0,.09.22,2.35,2.35,0,0,0,.19.39l.1.17c-.09-.15,0,0,0,.06l.27.34a12.07,12.07,0,0,0,1.33,1.44l-1.58,1.36a3.34,3.34,0,0,1-1-2.36c0-.4,0-.81,0-1.21,0-.16,0-.33,0-.49a2.11,2.11,0,0,1,.33-.86,1,1,0,0,1,1.44-.27,1.07,1.07,0,0,1,.27,1.45c-.13.22,0-.16,0-.16a1,1,0,0,0,0,.19l0,.45c0,.31,0,.63,0,.94,0-.11,0,0,0,0a1.42,1.42,0,0,1,0,.2c0,.08,0,.13,0,0,0,.06.05.12.07.17l.08.17c.12.23-.06,0,0,.05s.19.22.3.32a1,1,0,0,1-.11,1.47,1.08,1.08,0,0,1-1.47-.11,11.65,11.65,0,0,1-1.71-1.94,4.42,4.42,0,0,1-.87-2.78,2,2,0,0,1,.58-1.38,2,2,0,0,1,1.33-.47,1.82,1.82,0,0,1,1.37.51,2.46,2.46,0,0,1,.52,1.53,1.06,1.06,0,0,1-.82,1.22A1,1,0,0,1,374.94,132.14Z" transform="translate(-21.53 -45.51)"/><path class="cls-5" d="M248.48,128.54a37.77,37.77,0,0,1-4.59-2.53l.07,0a30.68,30.68,0,0,1-3.6-2.8l-1.57,1.51a31.52,31.52,0,0,0,8.51,5.48c.61.22,1.42.21,1.7-.53A.93.93,0,0,0,248.48,128.54Z" transform="translate(-21.53 -45.51)"/><path class="cls-5" d="M233.19,107.68v-.06C233.18,107.51,233.19,107.67,233.19,107.68Z" transform="translate(-21.53 -45.51)"/><path class="cls-5" d="M238.55,121.33l0,.1a22.47,22.47,0,0,1-5-11c-.09-.51-.16-1-.23-1.55l-.09-.83,0-.39h0v.06s0-.17,0-.06c0-.08,0-.16,0-.23a1.19,1.19,0,0,0-1.09-1.23,1.18,1.18,0,0,0-1.22,1.1,32.74,32.74,0,0,0,.94,6,22.25,22.25,0,0,0,7,11.49l1.57-1.51A17.19,17.19,0,0,1,238.55,121.33Z" transform="translate(-21.53 -45.51)"/><path class="cls-6" d="M259.3,181.65c-1,2.94,3.49,4.33,5.16,5.06,5.93,2.58,12.45,2.79,18.82,3.18q1.1,0,2.19,0c6.7.17,12.62,3.46,19,5a90.78,90.78,0,0,0,16.24,2.56c.88,0,2.38.21,3.16-.88a1.9,1.9,0,0,0-.29-2.71c-3.42-2.75-7.56-3.6-11.5-4.61-8-2.07-16.58-.89-24.52-3.23a41.4,41.4,0,0,1-5.16-2.06c-.56-.25-1.13-.5-1.7-.73a40.82,40.82,0,0,0-10.18-2.64c-1.78-.24-3.56-.41-5.36-.5-1.48-.07-3.41-.43-4.83.31A2.12,2.12,0,0,0,259.3,181.65Z" transform="translate(-21.53 -45.51)"/><path class="cls-5" d="M314.27,154.69c-.27,1-.53,1.94-.85,2.91v-.07a2.74,2.74,0,0,1-.12.45c-.35,1.14-.71,2.27-1.08,3.4-.76,2.28-1.55,4.55-2.38,6.79-1.65,4.47-3.42,8.87-5.2,13.25-1,2.49-2,5-3,7.45a1.93,1.93,0,0,0,.4,2.24c.57.33,1.32,0,1.68-.88,3.59-8.88,7.33-17.69,10.4-26.87.45-1.35.89-2.7,1.31-4.06s.82-2.73,1.2-4.12c.25-.87-.23-1.87-.82-2s-1.26.52-1.52,1.48Z" transform="translate(-21.53 -45.51)"/><path class="cls-5" d="M302.44,190.27a8.45,8.45,0,0,0,.75.59,8.57,8.57,0,0,0,.81.52,16.61,16.61,0,0,0,3.74,1.3,6.58,6.58,0,0,0,1,.08,5,5,0,0,0,.75,0,3,3,0,0,0,.75-.18,1.32,1.32,0,0,0,.77-1.71,3.81,3.81,0,0,0-1.22-1.91,5.76,5.76,0,0,0-.51-.35,5.07,5.07,0,0,0-5.34.37l-.41.29c-.2.3-.58.4-.78.7C302.63,190,302.53,190.15,302.44,190.27Z" transform="translate(-21.53 -45.51)"/><path class="cls-5" d="M301.76,191a8.71,8.71,0,0,0,2.2,1.44,23.36,23.36,0,0,0,2.45.94,7.91,7.91,0,0,0,2.69.35,3.38,3.38,0,0,0,2.45-.92c1.12-1.37.25-3.47-.9-4.53a5.53,5.53,0,0,0-4.48-1.32,6.47,6.47,0,0,0-2.58.93,5.72,5.72,0,0,0-.48.32,2.08,2.08,0,0,0-.36.29.69.69,0,0,1-.11.13c.1-.09.11-.09,0,0a3.81,3.81,0,0,0-1,.94,1,1,0,1,0,1.53,1.37c.09-.13.19-.24.29-.36s.21-.2,0-.06l.14-.09a5.46,5.46,0,0,0,.45-.36s.17-.2.08-.1,0,0,.05,0l.17-.12.39-.25.15-.09.13-.07.13-.06.2-.08.47-.16.26-.06h0a3.18,3.18,0,0,1,.43-.06l.44,0h.16l.17,0a4.65,4.65,0,0,1,.76.15s.3.12.07,0l.16.07a2.82,2.82,0,0,1,.46.23l.15.09.15.1c.11.1.22.19.32.3h0a1.66,1.66,0,0,1,.16.21l.09.14s.16.29.11.19.06.13.06.13l.06.17a2.6,2.6,0,0,1,.1.25c.08.19,0,0,0,0s.07.31,0,.38v-.13a.77.77,0,0,1,0,.15l0,.07c0,.11,0,.1,0,0s0,.12-.06.12l.07-.1-.1.11c.13-.16.08-.09,0,0l.1,0-.16.05a1.27,1.27,0,0,1-.18.06s-.32.08-.12,0a4.6,4.6,0,0,1-.52.06l-.53,0h-.16l-.22,0a9.26,9.26,0,0,1-1.14-.24c-.18-.06-.37-.11-.55-.18s.22.09-.09,0l-.3-.11c-.37-.14-.74-.3-1.11-.46a7.42,7.42,0,0,1-1-.5c-.29-.18.08.05-.09-.06l-.3-.22c-.16-.13-.33-.26-.48-.4a1,1,0,1,0-1.37,1.53Z" transform="translate(-21.53 -45.51)"/><path class="cls-5" d="M284.43,148.68c-.07.59-.15,1.18-.21,1.77,0,.28-.07.56-.1.84,0,.13,0,.25,0,.38,0-.23,0,.32,0,.38-.12,1.18-.23,2.37-.33,3.55-.19,2.39-.34,4.79-.45,7.18-.22,4.76-.31,9.49-.38,14.23,0,2.68-.06,5.36-.11,8,0,.88-.57,1.83-1.24,1.91s-1.22-.53-1.2-1.47c.15-9.58.14-19.15.89-28.8.11-1.42.23-2.83.38-4.25s.3-2.82.49-4.24c.11-.89.93-1.6,1.51-1.45s.95,1,.83,1.93Z" transform="translate(-21.53 -45.51)"/><path class="cls-5" d="M281.47,186a8.87,8.87,0,0,1-.92.25,7.53,7.53,0,0,1-.95.16,16,16,0,0,1-4-.26,5.64,5.64,0,0,1-.93-.31,6.87,6.87,0,0,1-.67-.33,4.25,4.25,0,0,1-.63-.46,1.34,1.34,0,0,1,0-1.88,3.9,3.9,0,0,1,1.87-1.28,3.29,3.29,0,0,1,.61-.12,5,5,0,0,1,4.77,2.42c.09.14.18.28.26.43.07.35.38.59.45.94C281.39,185.72,281.43,185.87,281.47,186Z" transform="translate(-21.53 -45.51)"/><path class="cls-5" d="M281.8,187a8.77,8.77,0,0,1-2.58.47,23,23,0,0,1-2.63-.09,7.86,7.86,0,0,1-2.61-.72,3.35,3.35,0,0,1-1.9-1.81c-.5-1.7,1.12-3.29,2.59-3.82a5.53,5.53,0,0,1,4.64.53,6.65,6.65,0,0,1,2,1.86c.11.16.21.32.31.49a2,2,0,0,1,.22.41.88.88,0,0,0,.05.15v0a3.57,3.57,0,0,1,.54,1.25,1,1,0,0,1-1.94.66c0-.15-.08-.29-.13-.44s-.12-.27,0-.06l-.09-.14a5.05,5.05,0,0,1-.28-.51s-.08-.25,0-.12l0-.05a1.63,1.63,0,0,1-.11-.17l-.26-.39a1.71,1.71,0,0,0-.11-.14l-.09-.11-.1-.11-.15-.16-.37-.32-.22-.16h0c-.12-.08-.25-.15-.38-.22a2.81,2.81,0,0,0-.39-.19l-.16-.07c-.11,0-.11,0,0,0l-.16-.05a5.1,5.1,0,0,0-.76-.15c-.05,0-.32,0-.07,0h-.17a4.41,4.41,0,0,0-.52,0l-.17,0-.18,0-.41.14h0l-.22.13-.15.1s-.26.21-.17.13-.11.1-.1.1l-.13.13a1.8,1.8,0,0,0-.19.2c-.15.14,0,0,0,0s-.18.26-.17.34l0-.12c0,.05,0,.1,0,.15v.07q0,.17,0-.06s0,.13,0,.14l0-.12a.5.5,0,0,0,.05.13c-.06-.19,0-.1,0,0l-.08-.08.12.12.15.12s.27.19.1.08a4,4,0,0,0,.45.26l.48.22s.33.12.15.06l.21.06a6.38,6.38,0,0,0,1.14.22l.58.06c.2,0-.24,0,.1,0H279a6.47,6.47,0,0,0,1.08-.09c.34-.05-.08,0,.11,0l.36-.08c.21,0,.41-.12.61-.18a1,1,0,0,1,1.3.64A1,1,0,0,1,281.8,187Z" transform="translate(-21.53 -45.51)"/><path class="cls-7" d="M244.05,95.11A59.57,59.57,0,0,1,259.11,65c10.17-11,23.86-17.23,38.15-19a69,69,0,0,1,14.37-.29c18.58,1.55,36.32,9.93,48.05,25.12,17,22,14.53,53.08-1.12,74.48a61.27,61.27,0,0,1-6.61,7.72,59.77,59.77,0,0,1-7.95,6.6c-40.7,28.26-99.26-2.37-100.91-51.27A63,63,0,0,1,244.05,95.11Z" transform="translate(-21.53 -45.51)"/><path class="cls-8" d="M371.3,106.84a58.11,58.11,0,0,0-16.07-40.91,57.42,57.42,0,0,0-8-7.22,37.1,37.1,0,0,0-4.58-2.83c-.52-.26-3-1.89-2.72-.19.18,1.12,1.91,2,2.69,2.7,1.32,1.14,2.61,2.32,3.84,3.55a67.82,67.82,0,0,1,14.17,20.38c9.58,21.22,3.08,44.9-11.46,61.31a55.61,55.61,0,0,1-8.27,7.66,52.85,52.85,0,0,1-9.75,5.83,48.26,48.26,0,0,1-20.61,4.47,61.48,61.48,0,0,1-8.25-.35A78.92,78.92,0,0,1,271,150.39,68,68,0,0,1,254.71,137l-.81-.94c-1.09-1.46-2.27-4-3.93-3.16-1.05.54.46,2.35,1.1,3.44a6.31,6.31,0,0,1,.44,1c.24.41.48.81.73,1.21,18.33,29.65,60.36,42.91,91.76,21.1a59.77,59.77,0,0,0,7.95-6.6,61.27,61.27,0,0,0,6.61-7.72,69.61,69.61,0,0,0,11.77-28.14A66.44,66.44,0,0,0,371.3,106.84Z" transform="translate(-21.53 -45.51)"/><path class="cls-9" d="M260.26,98.38A44.2,44.2,0,0,1,271.41,76.1a45.5,45.5,0,0,1,24.76-13.52,51.71,51.71,0,0,1,14.16-.77c20.33,1.3,39.88,16.07,43.43,37a49.29,49.29,0,0,1-11,39.79,44.86,44.86,0,0,1-8.46,7.66c-30.16,20.94-73.54-1.76-74.76-38A46.41,46.41,0,0,1,260.26,98.38Z" transform="translate(-21.53 -45.51)"/><g class="cls-10"><path class="cls-7" d="M269.14,100.18a35.74,35.74,0,0,1,9-18,36.72,36.72,0,0,1,20-10.93,41.78,41.78,0,0,1,11.44-.62c14,.95,27.33,8.87,32.87,22.69A38.59,38.59,0,0,1,329,138.83c-24.37,16.92-59.44-1.42-60.42-30.7A37.17,37.17,0,0,1,269.14,100.18Z" transform="translate(-21.53 -45.51)"/></g><path class="cls-5" d="M281.21,102.61A24.22,24.22,0,0,1,297.14,84a27.75,27.75,0,0,1,11.51-1.45,25.15,25.15,0,0,1,21.19,36.93,24.81,24.81,0,0,1-8,9.33c-16.52,11.48-40.31-1-41-20.82A25,25,0,0,1,281.21,102.61Z" transform="translate(-21.53 -45.51)"/><path class="cls-7" d="M279.15,80.66c.49-5.83,5.87-10,11.5-10.86a12.57,12.57,0,0,1,13.12,7c1.82,4.46,1.67,9.65-1.57,13.31a13.7,13.7,0,0,1-14.45,4.1,14.57,14.57,0,0,1-3.41-1.66,12.76,12.76,0,0,1-2.74-2.43,10.76,10.76,0,0,1-2.55-6.82A12,12,0,0,1,279.15,80.66Z" transform="translate(-21.53 -45.51)"/><path class="cls-7" d="M295.11,105.7c.26-3.07,3.09-5.25,6.06-5.72a6.6,6.6,0,0,1,6.09,10.69,7.23,7.23,0,0,1-7.62,2.16,7.81,7.81,0,0,1-1.79-.87,7.15,7.15,0,0,1-1.45-1.28,5.64,5.64,0,0,1-1.34-3.6A6.38,6.38,0,0,1,295.11,105.7Z" transform="translate(-21.53 -45.51)"/><path class="cls-11" d="M273.13,129c-1.42,3.06,1.2,5.68,3.83,6.82,3.36,1.46,9,1,10.31-3.12.77-2.5-1-4.63-3-5.8-3.19-1.8-8-2.21-10.43,1A5.45,5.45,0,0,0,273.13,129Z" transform="translate(-21.53 -45.51)"/><path class="cls-11" d="M331.18,140.81c.12,3.37-3.32,4.76-6.19,4.78-3.66,0-8.72-2.58-8.28-6.89.27-2.6,2.73-3.88,5.08-4.15,3.63-.42,8.2,1.06,9.2,5A5.84,5.84,0,0,1,331.18,140.81Z" transform="translate(-21.53 -45.51)"/><path class="cls-7" d="M316.29,70.39a1.28,1.28,0,0,0-.65-.77.63.63,0,0,0-.88.21,7.51,7.51,0,0,0-.76,1.46,8.64,8.64,0,0,0-.45,1.58,22.15,22.15,0,0,0-.11,6,.27.27,0,0,0,.49.17h0s0,0,0,0C315.44,76.54,316.78,73.45,316.29,70.39Z" transform="translate(-21.53 -45.51)"/><path class="cls-7" d="M314.2,74.32a6.08,6.08,0,0,0-.15-3A2.57,2.57,0,0,0,312,70c-.53-.07-.71.75-.17.82a1.68,1.68,0,0,1,1.65,1.4,10.55,10.55,0,0,1-.09,2.17c0,.54.8.48.83-.05Z" transform="translate(-21.53 -45.51)"/><path class="cls-7" d="M315.33,76c.32-.86.6-1.76,1-2.6a3.47,3.47,0,0,1,.57-1,1.12,1.12,0,0,1,1.36-.27c.52.14.68-.68.16-.82-2.55-.71-3.16,2.54-3.8,4.33-.18.5.56.88.74.37Z" transform="translate(-21.53 -45.51)"/><path class="cls-7" d="M270,92.8a1.23,1.23,0,0,0-.87.51.6.6,0,0,0,.06.89,7.43,7.43,0,0,0,1.3,1,9.53,9.53,0,0,0,1.47.72,22.59,22.59,0,0,0,6,1.16.28.28,0,0,0,.25-.46h0l0,0C275.91,94.7,273.1,92.85,270,92.8Z" transform="translate(-21.53 -45.51)"/><path class="cls-7" d="M273.54,95.54a6,6,0,0,0-3.12-.36A2.63,2.63,0,0,0,268.83,97c-.17.51.65.68.82.17.6-1.88,2.31-1.2,3.73-.86.52.13.69-.69.16-.81Z" transform="translate(-21.53 -45.51)"/><path class="cls-7" d="M275.26,94.67c-.71-.42-1.44-.81-2.14-1.25a5.34,5.34,0,0,1-.89-.6,1.26,1.26,0,0,1-.25-1.61c.23-.48-.51-.86-.74-.37-1.16,2.44,2,3.6,3.64,4.57.47.27.85-.48.38-.74Z" transform="translate(-21.53 -45.51)"/><path class="cls-7" d="M267.23,106.61a1.26,1.26,0,0,0-.65.77.62.62,0,0,0,.36.83,7.45,7.45,0,0,0,1.56.5,9.91,9.91,0,0,0,1.64.17,22.42,22.42,0,0,0,6-.95.27.27,0,0,0,.08-.51h0C273.42,106.37,270.15,105.59,267.23,106.61Z" transform="translate(-21.53 -45.51)"/><path class="cls-7" d="M271.52,108a6.42,6.42,0,0,0-2.85.58,2.57,2.57,0,0,0-.79,2.45.42.42,0,0,0,.84-.06c0-.8-.06-1.63.87-1.89a12,12,0,0,1,2-.25c.53-.06.48-.89-.06-.83Z" transform="translate(-21.53 -45.51)"/><path class="cls-7" d="M272.84,106.57c-.86-.15-1.74-.27-2.59-.47s-1.82-.5-1.71-1.62c0-.53-.77-.71-.82-.17a2,2,0,0,0,1.15,2.25,13.51,13.51,0,0,0,3.8.83c.53.09.7-.73.17-.82Z" transform="translate(-21.53 -45.51)"/><path class="cls-7" d="M269.81,120.2a1.19,1.19,0,0,0-.34.94.62.62,0,0,0,.61.66,7.55,7.55,0,0,0,1.65-.07,9,9,0,0,0,1.59-.4,22.08,22.08,0,0,0,5.3-2.93.27.27,0,0,0-.1-.51h0C275.55,117.86,272.21,118.24,269.81,120.2Z" transform="translate(-21.53 -45.51)"/><path class="cls-7" d="M274.25,120a6,6,0,0,0-2.54,1.65,2.4,2.4,0,0,0,0,2.38.42.42,0,0,0,.79-.27c-.29-.83-.41-1.55.39-2.13a12.15,12.15,0,0,1,1.83-.94c.48-.23,0-.93-.46-.69Z" transform="translate(-21.53 -45.51)"/><path class="cls-7" d="M275.1,118.24c-.91.16-1.82.36-2.74.46a3.76,3.76,0,0,1-1.16,0c-.65-.12-.83-.44-1-1s-.94-.24-.79.27a2,2,0,0,0,2,1.67,14.86,14.86,0,0,0,3.73-.53c.52-.09.47-.93-.06-.83Z" transform="translate(-21.53 -45.51)"/><path class="cls-7" d="M335.73,134.46a1.23,1.23,0,0,0,1-.17.62.62,0,0,0,.26-.86,6.83,6.83,0,0,0-.88-1.39,9.08,9.08,0,0,0-1.14-1.18,22.46,22.46,0,0,0-5.19-3.13.28.28,0,0,0-.4.34h0v0C330.83,130.66,332.84,133.36,335.73,134.46Z" transform="translate(-21.53 -45.51)"/><path class="cls-7" d="M333.37,130.7a6.22,6.22,0,0,0,2.7,1.38,2.55,2.55,0,0,0,2.17-1.14c.33-.42-.29-1-.62-.56-1.24,1.61-2.62.41-3.87-.43-.45-.3-.82.45-.38.75Z" transform="translate(-21.53 -45.51)"/><path class="cls-7" d="M331.38,130.86c.57.67,1.16,1.32,1.69,2a3.77,3.77,0,0,1,.65,1,1.27,1.27,0,0,1-.41,1.43c-.39.38.24.94.62.56,1.89-1.87-.62-4-1.85-5.46-.34-.41-1,0-.7.46Z" transform="translate(-21.53 -45.51)"/><path class="cls-7" d="M342.94,123.63a1.24,1.24,0,0,0,.89-.47.62.62,0,0,0,0-.9,7.09,7.09,0,0,0-1.27-1.05,8.33,8.33,0,0,0-1.45-.76,22.19,22.19,0,0,0-5.91-1.34.27.27,0,0,0-.26.44h0l0,0C337.1,121.55,339.85,123.49,342.94,123.63Z" transform="translate(-21.53 -45.51)"/><path class="cls-7" d="M339.5,120.79a6.51,6.51,0,0,0,2.91.49,2.47,2.47,0,0,0,1.8-1.76c.18-.5-.56-.88-.74-.37a1.71,1.71,0,0,1-1.57,1.35,8,8,0,0,1-2.23-.53c-.52-.14-.69.68-.17.82Z" transform="translate(-21.53 -45.51)"/><path class="cls-7" d="M337.76,121.61c.7.44,1.41.85,2.1,1.31a4.79,4.79,0,0,1,1,.76,1.19,1.19,0,0,1,.08,1.49.42.42,0,0,0,.75.38c1.23-2.41-1.88-3.67-3.53-4.68-.46-.28-.83.46-.37.74Z" transform="translate(-21.53 -45.51)"/><path class="cls-7" d="M346.34,110.57a1.25,1.25,0,0,0,.67-.76.61.61,0,0,0-.33-.83,6.83,6.83,0,0,0-1.55-.55,8.09,8.09,0,0,0-1.63-.22,21.86,21.86,0,0,0-6,.75.27.27,0,0,0-.1.51h0l0,0C340.13,110.6,343.38,111.49,346.34,110.57Z" transform="translate(-21.53 -45.51)"/><path class="cls-7" d="M342.1,109.07a6.71,6.71,0,0,0,2.95-.54,2.53,2.53,0,0,0,1.08-2.34c0-.54-.84-.48-.83.06a1.66,1.66,0,0,1-1.16,1.78,9.84,9.84,0,0,1-2.1.21.42.42,0,0,0,.06.83Z" transform="translate(-21.53 -45.51)"/><path class="cls-7" d="M340.74,110.43c.85.18,1.72.33,2.57.55s1.79.56,1.65,1.69c-.07.53.75.7.82.16a2,2,0,0,0-1.09-2.27,13.89,13.89,0,0,0-3.78-1,.42.42,0,0,0-.17.82Z" transform="translate(-21.53 -45.51)"/><path class="cls-7" d="M345.09,97a1.24,1.24,0,0,0,.35-1c0-.35-.21-.65-.62-.65a7.43,7.43,0,0,0-1.64.07,8.92,8.92,0,0,0-1.6.4,22.08,22.08,0,0,0-5.3,2.93.27.27,0,0,0,.1.51h.05C339.35,99.38,342.69,99,345.09,97Z" transform="translate(-21.53 -45.51)"/><path class="cls-7" d="M340.65,97.2a6.16,6.16,0,0,0,2.55-1.65,2.59,2.59,0,0,0,.1-2.45c-.21-.5-1-.23-.8.27.77,1.88-1,2.47-2.31,3.14-.48.23,0,.93.46.69Z" transform="translate(-21.53 -45.51)"/><path class="cls-7" d="M339.8,99c.91-.16,1.82-.36,2.74-.46a3,3,0,0,1,1.16,0c.62.14.76.48.91,1s.92.25.79-.27c-.66-2.57-3.79-1.46-5.66-1.13-.52.09-.47.93.06.83Z" transform="translate(-21.53 -45.51)"/><path class="cls-7" d="M339,84.65a1.2,1.2,0,0,0,0-1,.61.61,0,0,0-.8-.4,7.24,7.24,0,0,0-1.52.62,8.78,8.78,0,0,0-1.36.92,22.17,22.17,0,0,0-4,4.57.27.27,0,0,0,.27.44h0C334.44,88.82,337.45,87.31,339,84.65Z" transform="translate(-21.53 -45.51)"/><path class="cls-7" d="M334.89,86.35A6.33,6.33,0,0,0,336.72,84a2.58,2.58,0,0,0-.77-2.45c-.36-.4-.92.23-.56.62,1.33,1.46-.11,2.6-1.12,3.66-.37.39.25.94.62.55Z" transform="translate(-21.53 -45.51)"/><path class="cls-7" d="M334.79,88.27c.72-.41,1.42-.84,2.15-1.23a5.06,5.06,0,0,1,1-.46,1.24,1.24,0,0,1,1.51.58c.31.44,1,0,.7-.46-1.54-2.22-4.11-.1-5.79.88-.46.27,0,1,.46.69Z" transform="translate(-21.53 -45.51)"/><path class="cls-7" d="M328.83,75.56a1.27,1.27,0,0,0-.35-1,.61.61,0,0,0-.89-.1,7.1,7.1,0,0,0-1.22,1.1,9,9,0,0,0-1,1.33,22,22,0,0,0-2.17,5.66.27.27,0,0,0,.4.33h0l0,0C325.93,81,328.25,78.59,328.83,75.56Z" transform="translate(-21.53 -45.51)"/><path class="cls-7" d="M325.5,78.6a6.27,6.27,0,0,0,.92-3,2.6,2.6,0,0,0-1.53-1.91.42.42,0,0,0-.38.74c1.73.91.84,2.45.25,3.81-.22.49.53.87.74.37Z" transform="translate(-21.53 -45.51)"/><path class="cls-7" d="M326.06,80.44c.51-.61,1-1.23,1.53-1.83.66-.75,1.43-1.57,2.43-.85.43.3,1-.32.55-.63a2.06,2.06,0,0,0-2.74,0,20.13,20.13,0,0,0-2.4,2.72c-.34.41.28,1,.63.56Z" transform="translate(-21.53 -45.51)"/><path class="cls-7" d="M345.15,155.46c-.3,1.74-2.63,3.14-4,1.5a2.6,2.6,0,0,1,.63-4,2.19,2.19,0,0,1,3.1.58A2.61,2.61,0,0,1,345.15,155.46Z" transform="translate(-21.53 -45.51)"/><path class="cls-5" d="M293.42,140a8.89,8.89,0,0,0,6.7,7c3.82.72,6.62-1.68,8.42-4.79.95-1.63-1.67-3-2.61-1.32-1.19,2-2.91,3.78-5.47,3.2-2.37-.54-3.78-2.76-4.27-5a1.47,1.47,0,0,0-1.86-.91,1.49,1.49,0,0,0-.91,1.85Z" transform="translate(-21.53 -45.51)"/><rect class="cls-12" x="378.13" y="117.22" width="4.09" height="29.05" rx="0.75" transform="translate(110.28 402.79) rotate(-70.99)"/><path class="cls-13" d="M397.28,125.33a7.93,7.93,0,0,1,4.94,3.59,8.92,8.92,0,0,1,.52,6.16c-.79,3.69-2.12,8.46-5.6,10.53a7.45,7.45,0,0,1-5.53.74,7.91,7.91,0,0,1-6.15-10c.88-3.58,2.35-8,5.48-10.19A7.56,7.56,0,0,1,397.28,125.33Z" transform="translate(-21.53 -45.51)"/><path class="cls-13" d="M366.84,114.84a8,8,0,0,1,4.94,3.59,8.93,8.93,0,0,1,.52,6.16c-.8,3.69-2.12,8.47-5.6,10.54a7.55,7.55,0,0,1-5.53.74,7.92,7.92,0,0,1-6.15-10c.88-3.58,2.35-8,5.48-10.19A7.59,7.59,0,0,1,366.84,114.84Z" transform="translate(-21.53 -45.51)"/><path class="cls-5" d="M232.53,106.19a3.74,3.74,0,0,1-.89-.1,3.33,3.33,0,0,1-.82-.29,4.73,4.73,0,0,1-2.67-4,3.64,3.64,0,0,1,.06-.81,3.2,3.2,0,0,1,3.33-2.92c2.56.24,3.36,3.38,2.53,5.64a5.78,5.78,0,0,1-.47,1.08,4.6,4.6,0,0,1-.66.88Z" transform="translate(-21.53 -45.51)"/><path class="cls-5" d="M232.59,105.15a4,4,0,0,1-.68-.05c.19,0-.15,0-.15,0l-.31-.11s-.34-.16-.12,0l-.22-.13c-.14-.09-.28-.18-.41-.28a1.56,1.56,0,0,1-.2-.16s-.24-.21-.06,0c-.12-.11-.24-.23-.35-.35a2.69,2.69,0,0,1-.27-.32l-.15-.2c.15.2,0-.1-.07-.14a2.67,2.67,0,0,1-.22-.45,1,1,0,0,1-.06-.16c.08.23,0,0,0-.07a3.06,3.06,0,0,1-.1-.51s0-.32,0-.09a2.67,2.67,0,0,1,0-.4c0-.17,0-.33.05-.5s0-.17,0-.26c-.05.27,0,0,0,0a3.8,3.8,0,0,1,.18-.47c-.11.25,0,0,0,0a2.39,2.39,0,0,1,.13-.21l.15-.2c.16-.21-.16.14,0,0l.36-.31c.2-.17-.18.09.05,0l.17-.1.18-.08.15-.06c-.12,0-.13,0,0,0l.47-.1c.25,0-.21,0,.05,0h.2l.2,0c.27,0-.21-.07,0,0s.42.08.49.18l-.12-.06.13.07.18.12.11.09c.2.14-.15-.17,0,0a3,3,0,0,1,.29.32s.2.19,0,0a.79.79,0,0,1,.15.25,3.54,3.54,0,0,1,.16.34,1.19,1.19,0,0,1,.08.2c-.09-.25,0,0,0,0a5.59,5.59,0,0,1,.16.91c0-.27,0,0,0,0s0,.21,0,.32a5.35,5.35,0,0,1,0,.55.77.77,0,0,1,0,.15s0,.11,0,.16c0-.15,0-.16,0,0s-.09.35-.15.52-.16.46-.25.68c0,0-.1.18,0,0-.07.12-.14.25-.22.37a9.12,9.12,0,0,1-1,1.16,1,1,0,0,0,.28,1.45,1.09,1.09,0,0,0,1.45-.28l.11-.13c.12-.14-.09.1,0,0s.18-.19.26-.29a7.59,7.59,0,0,0,.56-.71,7.25,7.25,0,0,0,.71-1.52,6.49,6.49,0,0,0,.36-2.31,4.9,4.9,0,0,0-2.14-4.17,4,4,0,0,0-4.88.71,5.11,5.11,0,0,0-.9,5.39,5.65,5.65,0,0,0,5,3.51,1,1,0,1,0,.12-2.07Z" transform="translate(-21.53 -45.51)"/><path class="cls-5" d="M235.18,103.79c.08-.15.15-.3.24-.45l.08-.12-.06.07c-.06,0-.35.14-.37.09h.1c.05,0,0,0,0,0h0l.1,0c.17,0-.07,0-.06,0l.06,0c.07.06.08,0,0,0s-.07-.06,0,0l.06.07s-.11-.22-.12-.25c0,.18,0-.18,0-.06s0-.11,0,0,0,.15-.08.23,0,.1,0,0a3.34,3.34,0,0,1-.25.4c-.05.06-.08.1,0,0a1.37,1.37,0,0,1-.17.17,2.28,2.28,0,0,1-.33.29l-.15.11c.14-.1,0,0-.07,0l-.37.21a13.08,13.08,0,0,1-1.79.81l.92,1.86a3.35,3.35,0,0,0,1.87-1.77c.16-.37.33-.73.46-1.11.06-.16.11-.31.16-.47a2.38,2.38,0,0,0,0-.92,1,1,0,0,0-1.23-.81,1.07,1.07,0,0,0-.8,1.23c0,.25,0-.17,0-.17a1.8,1.8,0,0,1,0,.19l-.15.43c-.11.29-.24.58-.37.86.05-.1,0,0,0,0l-.12.16c0,.07-.08.11,0,0a.8.8,0,0,1-.13.13.86.86,0,0,1-.14.13c-.19.16.08,0,0,0s-.26.13-.4.18a1,1,0,0,0-.47,1.39,1.06,1.06,0,0,0,1.39.47,10.64,10.64,0,0,0,2.33-1.12,4.46,4.46,0,0,0,1.89-2.22,2,2,0,0,0,0-1.5,2.05,2.05,0,0,0-1-1,1.85,1.85,0,0,0-1.46,0,2.39,2.39,0,0,0-1.08,1.2,1.07,1.07,0,0,0,.28,1.44A1.05,1.05,0,0,0,235.18,103.79Z" transform="translate(-21.53 -45.51)"/><rect class="cls-12" x="228.47" y="86.86" width="4.09" height="29.05" rx="0.75" transform="translate(92.05 278.91) rotate(-86.07)"/><path class="cls-13" d="M249.38,91a8,8,0,0,0-5.95,1.38,8.92,8.92,0,0,0-2.88,5.47c-.71,3.71-1.34,8.62,1,11.88a7.49,7.49,0,0,0,4.81,2.84,7.92,7.92,0,0,0,9.56-6.8c.58-3.64.93-8.24-1.08-11.52A7.59,7.59,0,0,0,249.38,91Z" transform="translate(-21.53 -45.51)"/><path class="cls-13" d="M217.26,88.81a8,8,0,0,0-5.95,1.39,8.87,8.87,0,0,0-2.88,5.47c-.71,3.71-1.34,8.62,1,11.88a7.49,7.49,0,0,0,4.81,2.84,7.92,7.92,0,0,0,9.55-6.8c.58-3.64.93-8.25-1.07-11.52A7.6,7.6,0,0,0,217.26,88.81Z" transform="translate(-21.53 -45.51)"/></svg>