<?xml version="1.0" encoding="utf-8"?>
<!-- Generator: Adobe Illustrator 24.0.0, SVG Export Plug-In . SVG Version: 6.00 Build 0)  -->
<svg version="1.1" id="Layer_1" xmlns="http://www.w3.org/2000/svg" xmlns:xlink="http://www.w3.org/1999/xlink" x="0px" y="0px"
	 viewBox="0 0 749.4 164.3" style="enable-background:new 0 0 749.4 164.3;" xml:space="preserve">
<style type="text/css">
	.st0{enable-background:new    ;}
	.st1{fill:#FFC63A;}
	.st2{fill:#171C3C;}
	.st3{fill:#2E1010;}
	.st4{opacity:5.000000e-02;fill:#131313;enable-background:new    ;}
	.st5{fill:#FFFFFF;}
	.st6{fill:#EBF7F8;}
	.st7{fill:#FFC72E;}
	.st8{opacity:0.42;}
	.st9{fill:#ED2024;}
	.st10{fill:#68BD45;}
</style>
<title>eye buddy</title>
<g class="st0">
	<path class="st1" d="M363.6,62.1h29.1c5.8,0,10.1,0.2,12.9,0.7c2.8,0.5,5.4,1.5,7.6,3s4.1,3.6,5.6,6.1s2.2,5.4,2.2,8.5
		c0,3.4-0.9,6.5-2.8,9.4s-4.3,5-7.5,6.4c4.4,1.3,7.8,3.5,10.2,6.6c2.4,3.1,3.6,6.8,3.6,11c0,3.3-0.8,6.5-2.3,9.7
		c-1.5,3.1-3.6,5.6-6.3,7.5c-2.7,1.9-6,3-9.9,3.5c-2.5,0.3-8.4,0.4-17.7,0.5h-24.8V62.1z M378.3,74.2v16.8h9.6
		c5.7,0,9.3-0.1,10.7-0.2c2.5-0.3,4.5-1.2,5.9-2.6c1.4-1.4,2.2-3.3,2.2-5.7c0-2.3-0.6-4.1-1.9-5.5c-1.2-1.4-3.1-2.3-5.5-2.6
		c-1.5-0.2-5.6-0.2-12.6-0.2H378.3z M378.3,103.2v19.5h13.6c5.3,0,8.7-0.1,10.1-0.4c2.2-0.4,4-1.4,5.3-2.9c1.4-1.5,2.1-3.6,2.1-6.2
		c0-2.2-0.5-4-1.6-5.6c-1.1-1.5-2.6-2.6-4.6-3.3c-2-0.7-6.4-1-13-1H378.3z"/>
	<path class="st1" d="M436.9,62.1h14.7v39.4c0,6.3,0.2,10.3,0.5,12.2c0.6,3,2.1,5.4,4.5,7.2c2.4,1.8,5.6,2.7,9.7,2.7
		c4.2,0,7.3-0.9,9.4-2.6c2.1-1.7,3.4-3.8,3.8-6.3c0.4-2.5,0.6-6.6,0.6-12.4V62.1H495v38.2c0,8.7-0.4,14.9-1.2,18.5s-2.3,6.7-4.4,9.1
		s-5,4.5-8.6,5.9c-3.6,1.5-8.2,2.2-14,2.2c-7,0-12.2-0.8-15.8-2.4c-3.6-1.6-6.4-3.7-8.5-6.3c-2.1-2.6-3.5-5.3-4.1-8.1
		c-1-4.2-1.4-10.3-1.4-18.5V62.1z"/>
	<path class="st1" d="M510.4,62.1h26.9c6.1,0,10.7,0.5,13.9,1.4c4.3,1.3,7.9,3.5,11,6.7s5.4,7.1,7,11.8c1.6,4.7,2.4,10.4,2.4,17.2
		c0,6-0.7,11.2-2.2,15.5c-1.8,5.3-4.4,9.6-7.8,12.9c-2.5,2.5-6,4.4-10.3,5.8c-3.2,1-7.6,1.5-13,1.5h-27.7V62.1z M525.1,74.4v48.2h11
		c4.1,0,7.1-0.2,8.9-0.7c2.4-0.6,4.4-1.6,5.9-3c1.6-1.4,2.9-3.8,3.8-7c1-3.3,1.5-7.7,1.5-13.3s-0.5-10-1.5-13c-1-3-2.4-5.4-4.2-7.1
		c-1.8-1.7-4.1-2.8-6.8-3.4c-2.1-0.5-6.1-0.7-12.1-0.7H525.1z"/>
</g>
<g class="st0">
	<path class="st1" d="M605.5,62.1h26.9c6.1,0,10.7,0.5,13.9,1.4c4.3,1.3,7.9,3.5,11,6.7s5.4,7.1,7,11.8c1.6,4.7,2.4,10.4,2.4,17.2
		c0,6-0.7,11.2-2.2,15.5c-1.8,5.3-4.4,9.6-7.8,12.9c-2.5,2.5-6,4.4-10.3,5.8c-3.2,1-7.6,1.5-13,1.5h-27.7V62.1z M620.2,74.4v48.2h11
		c4.1,0,7.1-0.2,8.9-0.7c2.4-0.6,4.4-1.6,5.9-3c1.6-1.4,2.9-3.8,3.8-7c1-3.3,1.5-7.7,1.5-13.3s-0.5-10-1.5-13c-1-3-2.4-5.4-4.2-7.1
		c-1.8-1.7-4.1-2.8-6.8-3.4c-2.1-0.5-6.1-0.7-12.1-0.7H620.2z"/>
</g>
<g class="st0">
	<path class="st1" d="M705.6,134.9v-30.6L679,62.1h17.2l17.1,28.8l16.8-28.8h16.9l-26.8,42.3v30.5H705.6z"/>
</g>
<g class="st0">
	<path class="st2" d="M7.4,137.2V64.4h54v12.3H22.1v16.1h36.6v12.3H22.1V125h40.7v12.3H7.4z"/>
	<path class="st2" d="M93.4,137.2v-30.6L66.7,64.4h17.2l17.1,28.8l16.8-28.8h16.9L108,106.7v30.5H93.4z"/>
</g>
<g class="st0">
	<path class="st2" d="M143,137.2V64.4h54v12.3h-39.3v16.1h36.6v12.3h-36.6V125h40.7v12.3H143z"/>
</g>
<path class="st3" d="M331.5,104.2c1.7-0.1,3.5-0.2,5.2-0.5h-0.1c2.4-0.4,4.7-1.2,6.8-2.2l-0.1,0.1c3.7-1.9,6.8-4.7,8.9-8.2
	c0.3-0.4,0.6-0.9,0.8-1.4c0.1-0.2,0.3-0.5,0.4-0.7s0.1-0.2,0.2-0.3s0,0,0,0s0.1-0.2,0.1-0.3c0.2-0.6,0.9-0.9,1.5-0.7
	c0.6,0.2,0.9,0.9,0.7,1.5c-0.9,1.8-2,3.5-3.2,5.2c-4.7,6.6-13,9.5-20.9,9.6c-0.6,0-1.4-0.4-1.4-1.2
	C330.6,104.6,331.1,104.2,331.5,104.2L331.5,104.2z"/>
<path class="st3" d="M354.9,89.9c0.3,0.1,0.6,0.2,0.9,0.3c0.3,0,0.6,0.1,0.9,0.1c1.7-0.1,3.2-1.1,4-2.6c0.1-0.2,0.2-0.5,0.3-0.8
	c0.5-1.6-0.3-3.4-1.9-4c-2.5-0.8-4.4,1.8-4.5,4.2c0,0.4,0,0.8,0,1.2c0,0.4,0.1,0.7,0.3,1.1C354.8,89.5,354.8,89.6,354.9,89.9z"/>
<path class="st3" d="M355.3,88.9c0.2,0.1,0.4,0.2,0.6,0.2c-0.2,0,0.2,0,0.2,0h0.3c0,0,0.4,0,0.1,0h0.2c0.2,0,0.3-0.1,0.5-0.1
	l0.2-0.1c0,0,0.3-0.1,0.1,0l0.5-0.2l0.4-0.2l0.2-0.1c-0.2,0.1,0.1-0.1,0.1-0.1c0.1-0.1,0.3-0.2,0.4-0.3l0.1-0.1c-0.2,0.2,0,0,0-0.1
	c0.1-0.1,0.2-0.3,0.3-0.4c0,0,0.1-0.3,0-0.1l0.1-0.4c0.1-0.2,0.1-0.3,0.1-0.5c0-0.1,0.1-0.2,0.1-0.3c-0.1,0.3,0,0,0-0.1
	c0-0.2,0-0.3,0-0.5c0,0.3,0,0,0,0c0-0.1,0-0.2,0-0.2l-0.1-0.2c-0.1-0.3,0.1,0.2,0,0l-0.2-0.4c-0.1-0.2,0.1,0.2,0,0
	c0-0.1-0.1-0.1-0.1-0.2c0-0.1-0.1-0.1-0.1-0.1l-0.1-0.1c0.1,0.1,0.1,0.1,0,0c-0.1-0.1-0.3-0.2-0.4-0.3c-0.2-0.1,0.2,0.1,0,0
	l-0.2-0.1h-0.2c-0.3-0.1,0.2,0,0,0s-0.4-0.1-0.5,0h0.1H358h-0.2h-0.1c-0.2,0.1,0.2-0.1,0,0s-0.3,0.1-0.4,0.2s-0.3,0.1,0,0
	c-0.1,0-0.2,0.1-0.2,0.2l-0.3,0.3l-0.1,0.2c0.2-0.2,0,0,0,0c-0.2,0.2-0.4,0.5-0.5,0.8c0.1-0.2,0,0,0,0l-0.1,0.3
	c-0.1,0.2-0.1,0.3-0.2,0.5c0,0,0,0.1,0,0.1v0.2v-0.1c0,0.2,0,0.4-0.1,0.5s0,0.5,0,0.7c0,0,0,0.2,0,0.1c0,0.1,0,0.3,0,0.4
	c0.1,0.5,0.2,1,0.4,1.4c0.1,0.6-0.3,1.1-0.8,1.2c-0.6,0.1-1.1-0.3-1.2-0.8l0-0.2c-0.1-0.2,0,0.1,0,0s-0.1-0.3-0.1-0.4
	c-0.1-0.3-0.2-0.6-0.2-0.9c-0.1-0.6-0.1-1.1-0.1-1.7c0-0.8,0.2-1.6,0.6-2.3c0.6-1.5,2-2.7,3.6-3c1.8-0.2,3.6,0.8,4.2,2.6
	c0.6,1.9,0.2,3.9-1.3,5.3c-1.6,1.6-3.9,2.1-6,1.3c-0.5-0.2-0.8-0.8-0.6-1.3C354.3,89.1,354.8,88.8,355.3,88.9z"/>
<path class="st3" d="M353.4,86.6c0-0.2,0-0.3,0-0.5c0,0,0-0.1,0-0.1v0.1c0,0,0.3,0.3,0.3,0.2h-0.1c-0.1,0,0,0,0,0h-0.1
	c-0.2,0,0.1,0,0.1,0h-0.1c-0.1,0-0.1,0,0,0s0.1,0,0,0h-0.1c0,0,0.2-0.2,0.2-0.2c-0.1,0.1,0.1-0.1,0-0.1s0-0.1,0,0c0,0.1,0,0.2,0,0.2
	c0,0.1,0,0.1,0,0c0,0.2,0,0.3,0.1,0.5c0,0.1,0,0.1,0,0c0,0.1,0,0.2,0.1,0.2c0.1,0.1,0.1,0.3,0.2,0.4l0.1,0.2c-0.1-0.1,0,0,0,0.1
	l0.3,0.3c0.4,0.5,0.8,1,1.3,1.4l-1.6,1.4c-0.6-0.6-1-1.5-1-2.4c0-0.4,0-0.8,0-1.2c0-0.2,0-0.3,0-0.5c0-0.3,0.2-0.6,0.3-0.9
	c0.3-0.5,0.9-0.6,1.4-0.3c0,0,0,0,0.1,0c0.5,0.3,0.6,1,0.3,1.4c-0.1,0.2,0-0.2,0-0.2c0,0.1,0,0.1,0,0.2v0.4c0,0.3,0,0.6,0,0.9
	c0-0.1,0,0,0,0c0,0.1,0,0.1,0,0.2c0,0.1,0,0.1,0,0c0,0.1,0,0.1,0.1,0.2l0.1,0.2c0.1,0.2-0.1,0,0,0.1s0.2,0.2,0.3,0.3
	c0.4,0.4,0.4,1,0,1.4c0,0,0,0-0.1,0.1c-0.4,0.4-1.1,0.3-1.5-0.1c-0.6-0.6-1.2-1.2-1.7-1.9c-0.6-0.8-0.9-1.8-0.9-2.8
	c0-0.5,0.2-1,0.6-1.4c0.4-0.3,0.8-0.5,1.3-0.5c0.5,0,1,0.2,1.4,0.5c0.3,0.4,0.5,1,0.5,1.5c0.1,0.6-0.3,1.1-0.8,1.2
	C354,87.4,353.5,87.1,353.4,86.6z"/>
<path class="st3" d="M226.9,83c-1.6-0.7-3.1-1.6-4.6-2.5h0.1c-1.3-0.8-2.5-1.8-3.6-2.8l-1.6,1.5c2.5,2.3,5.4,4.1,8.5,5.5
	c0.6,0.2,1.4,0.2,1.7-0.5C227.6,83.7,227.4,83.2,226.9,83z"/>
<path class="st3" d="M211.7,62.2L211.7,62.2C211.6,62,211.7,62.2,211.7,62.2z"/>
<path class="st3" d="M217,75.8L217,75.8c-2.6-3-4.4-6.8-5-10.9c-0.1-0.5-0.2-1-0.2-1.5l-0.1-0.8v-0.4l0,0v0.1c0,0,0-0.2,0-0.1
	c0-0.1,0-0.2,0-0.2c0-0.6-0.5-1.2-1.1-1.2c-0.6,0-1.2,0.5-1.2,1.1c0.1,2,0.4,4,0.9,6c1.1,4.5,3.5,8.5,7,11.5l1.6-1.5
	C218.2,77.2,217.6,76.5,217,75.8z"/>
<path class="st4" d="M237.8,136.1c-1,2.9,3.5,4.3,5.2,5.1c5.9,2.6,12.5,2.8,18.8,3.2c0.7,0,1.5,0,2.2,0c6.7,0.2,12.6,3.5,19,5
	c5.3,1.3,10.8,2.2,16.2,2.6c0.9,0,2.4,0.2,3.2-0.9c0.7-0.8,0.6-2-0.2-2.7c0,0,0,0,0,0c-3.4-2.8-7.6-3.6-11.5-4.6
	c-8-2.1-16.6-0.9-24.5-3.2c-1.8-0.6-3.5-1.3-5.2-2.1c-0.6-0.3-1.1-0.5-1.7-0.7c-3.3-1.3-6.7-2.2-10.2-2.6c-1.8-0.2-3.6-0.4-5.4-0.5
	c-1.5-0.1-3.4-0.4-4.8,0.3C238.3,135.2,237.9,135.6,237.8,136.1z"/>
<path class="st3" d="M292.7,109.2c-0.3,1-0.5,1.9-0.9,2.9V112c0,0.2-0.1,0.3-0.1,0.4c-0.4,1.1-0.7,2.3-1.1,3.4
	c-0.8,2.3-1.5,4.6-2.4,6.8c-1.6,4.5-3.4,8.9-5.2,13.3c-1,2.5-2,5-3,7.4c-0.4,0.8-0.2,1.7,0.4,2.2c0.6,0.3,1.3,0,1.7-0.9
	c3.6-8.9,7.3-17.7,10.4-26.9c0.5-1.4,0.9-2.7,1.3-4.1s0.8-2.7,1.2-4.1c0.3-0.9-0.2-1.9-0.8-2S293,108.2,292.7,109.2L292.7,109.2z"/>
<path class="st3" d="M280.9,144.8c0.2,0.2,0.5,0.4,0.8,0.6c0.3,0.2,0.5,0.4,0.8,0.5c1.2,0.6,2.4,1,3.7,1.3c0.3,0.1,0.7,0.1,1,0.1
	c0.2,0,0.5,0,0.8,0c0.3,0,0.5-0.1,0.8-0.2c0.7-0.3,1-1,0.8-1.7c0,0,0,0,0,0c-0.2-0.7-0.6-1.4-1.2-1.9c-0.2-0.1-0.3-0.2-0.5-0.4
	c-1.7-0.9-3.8-0.8-5.3,0.4l-0.4,0.3c-0.2,0.3-0.6,0.4-0.8,0.7C281.1,144.5,281,144.6,280.9,144.8z"/>
<path class="st3" d="M280.2,145.5c0.7,0.6,1.4,1.1,2.2,1.4c0.8,0.4,1.6,0.7,2.5,0.9c0.9,0.3,1.8,0.4,2.7,0.4c0.9,0,1.8-0.3,2.5-0.9
	c1.1-1.4,0.3-3.5-0.9-4.5c-1.2-1.1-2.9-1.6-4.5-1.3c-0.9,0.1-1.8,0.4-2.6,0.9c-0.2,0.1-0.3,0.2-0.5,0.3c-0.1,0.1-0.3,0.2-0.4,0.3
	c0,0-0.1,0.1-0.1,0.1c0.1-0.1,0.1-0.1,0,0c-0.4,0.3-0.7,0.6-1,0.9C279.7,144.5,279.8,145.1,280.2,145.5c0.4,0.4,1,0.4,1.4-0.1
	c0.1-0.1,0.2-0.2,0.3-0.4s0.2-0.2,0-0.1l0.1-0.1c0.2-0.1,0.3-0.2,0.5-0.4c0,0,0.2-0.2,0.1-0.1s0,0,0,0l0.2-0.1l0.4-0.3l0.1-0.1
	l0.1-0.1l0.1-0.1l0.2-0.1l0.5-0.2l0.3-0.1l0,0c0.1,0,0.3,0,0.4-0.1h0.4h0.2h0.2c0.3,0,0.5,0.1,0.8,0.1c0,0,0.3,0.1,0.1,0l0.2,0.1
	c0.2,0.1,0.3,0.1,0.5,0.2l0.1,0.1l0.1,0.1c0.1,0.1,0.2,0.2,0.3,0.3l0,0c0.1,0.1,0.1,0.1,0.2,0.2l0.1,0.1c0,0,0.2,0.3,0.1,0.2
	s0.1,0.1,0.1,0.1l0.1,0.2c0,0.1,0.1,0.2,0.1,0.3c0.1,0.2,0,0,0,0s0.1,0.3,0,0.4v-0.1c0,0,0,0.1,0,0.1v0.1c0,0.1,0,0.1,0,0
	s0,0.1-0.1,0.1l0.1-0.1l-0.1,0.1c0.1-0.2,0.1-0.1,0,0h0.1l-0.2,0.1c-0.1,0-0.1,0-0.2,0.1c0,0-0.3,0.1-0.1,0c-0.2,0-0.3,0-0.5,0.1
	h-0.5h-0.2h-0.2c-0.4-0.1-0.8-0.1-1.1-0.2c-0.2-0.1-0.4-0.1-0.5-0.2s0.2,0.1-0.1,0l-0.3-0.1c-0.4-0.1-0.7-0.3-1.1-0.5
	c-0.3-0.1-0.7-0.3-1-0.5c-0.3-0.2,0.1,0.1-0.1-0.1l-0.3-0.2c-0.2-0.1-0.3-0.3-0.5-0.4c-0.4-0.4-1.1-0.3-1.4,0.1
	c-0.4,0.4-0.3,1.1,0.1,1.4l0,0L280.2,145.5z"/>
<path class="st3" d="M262.9,103.2c-0.1,0.6-0.1,1.2-0.2,1.8c0,0.3-0.1,0.6-0.1,0.8c0,0.1,0,0.3,0,0.4c0-0.2,0,0.3,0,0.4
	c-0.1,1.2-0.2,2.4-0.3,3.6c-0.2,2.4-0.3,4.8-0.5,7.2c-0.2,4.8-0.3,9.5-0.4,14.2c0,2.7-0.1,5.4-0.1,8c0,0.9-0.6,1.8-1.2,1.9
	s-1.2-0.5-1.2-1.5c0.1-9.6,0.1-19.1,0.9-28.8c0.1-1.4,0.2-2.8,0.4-4.3s0.3-2.8,0.5-4.2c0.1-0.9,0.9-1.6,1.5-1.4
	S263.1,102.2,262.9,103.2L262.9,103.2z"/>
<path class="st3" d="M259.9,140.5c-0.3,0.1-0.6,0.2-0.9,0.3c-0.3,0.1-0.6,0.1-1,0.2c-1.3,0.1-2.7,0-4-0.3c-0.3-0.1-0.6-0.2-0.9-0.3
	c-0.2-0.1-0.5-0.2-0.7-0.3c-0.2-0.1-0.4-0.3-0.6-0.5c-0.5-0.5-0.5-1.4,0-1.9c0.5-0.6,1.1-1,1.9-1.3c0.2-0.1,0.4-0.1,0.6-0.1
	c1.9-0.2,3.8,0.8,4.8,2.4c0.1,0.1,0.2,0.3,0.3,0.4c0.1,0.4,0.4,0.6,0.5,0.9C259.9,140.2,259.9,140.4,259.9,140.5z"/>
<path class="st3" d="M260.3,141.5c-0.8,0.3-1.7,0.4-2.6,0.5c-0.9,0-1.8,0-2.6-0.1c-0.9-0.1-1.8-0.3-2.6-0.7c-0.9-0.3-1.5-1-1.9-1.8
	c-0.5-1.7,1.1-3.3,2.6-3.8c1.5-0.5,3.2-0.3,4.6,0.5c0.8,0.5,1.5,1.1,2,1.9c0.1,0.2,0.2,0.3,0.3,0.5c0.1,0.1,0.2,0.3,0.2,0.4
	c0,0.1,0,0.1,0,0.1l0,0c0.3,0.4,0.4,0.8,0.5,1.3C261.1,140.7,260.8,141.3,260.3,141.5c-0.5,0.2-1.1-0.1-1.3-0.6
	c0-0.1-0.1-0.3-0.1-0.4s-0.1-0.3,0-0.1l-0.1-0.1c-0.1-0.2-0.2-0.3-0.3-0.5c0,0-0.1-0.3,0-0.1v-0.1c0-0.1-0.1-0.1-0.1-0.2l-0.3-0.4
	c0,0-0.1-0.1-0.1-0.1l-0.1-0.1l-0.1-0.1l-0.1-0.2l-0.4-0.3l-0.2-0.2l0,0c-0.1-0.1-0.3-0.1-0.4-0.2c-0.1-0.1-0.3-0.1-0.4-0.2
	l-0.2-0.1c-0.1,0-0.1,0,0,0l-0.2-0.1c-0.2-0.1-0.5-0.1-0.8-0.1c0,0-0.3,0-0.1,0H255c-0.2,0-0.3,0-0.5,0h-0.2h-0.2l-0.4,0.1l0,0
	l-0.2,0.1l-0.1,0.1c0,0-0.3,0.2-0.2,0.1s-0.1,0.1-0.1,0.1l-0.1,0.1c-0.1,0.1-0.1,0.1-0.2,0.2c-0.1,0.1,0,0,0,0s-0.2,0.3-0.2,0.3
	v-0.1c0,0.1,0,0.1,0,0.1v0.1c0,0.1,0,0.1,0-0.1c0-0.2,0,0.1,0,0.1v-0.1c0,0,0,0.1,0,0.1c-0.1-0.2,0-0.1,0,0l-0.1-0.1l0.1,0.1
	l0.1,0.1c0,0,0.3,0.2,0.1,0.1c0.1,0.1,0.3,0.2,0.5,0.3l0.5,0.2c0,0,0.3,0.1,0.1,0.1l0.2,0.1c0.4,0.1,0.8,0.2,1.1,0.2l0.6,0.1
	c0.2,0-0.2,0,0.1,0h1.5c0.4,0,0.7,0,1.1-0.1c0.3-0.1-0.1,0,0.1,0l0.4-0.1c0.2,0,0.4-0.1,0.6-0.2c0.5-0.2,1.1,0.1,1.3,0.6
	c0,0,0,0,0,0C261.1,140.7,260.9,141.3,260.3,141.5C260.3,141.5,260.3,141.5,260.3,141.5z"/>
<path class="st5" d="M222.5,49.6c2-11.3,7.2-21.7,15.1-30.1c10.2-11,23.9-17.2,38.1-19c4.8-0.6,9.6-0.7,14.4-0.3
	c18.6,1.5,36.3,9.9,48,25.1c17,22,14.5,53.1-1.1,74.5c-2,2.8-4.2,5.3-6.6,7.7c-2.5,2.4-5.1,4.6-8,6.6
	c-40.7,28.3-99.3-2.4-100.9-51.3C221.4,58.4,221.7,54,222.5,49.6z"/>
<path class="st6" d="M349.8,61.3c0.2-15.2-5.6-29.9-16.1-40.9c-2.4-2.7-5.1-5.1-8-7.2c-1.5-1.1-3-2-4.6-2.8c-0.5-0.3-3-1.9-2.7-0.2
	c0.2,1.1,1.9,2,2.7,2.7c1.3,1.1,2.6,2.3,3.8,3.5c5.9,5.9,10.7,12.8,14.2,20.4c9.6,21.2,3.1,44.9-11.5,61.3c-2.5,2.8-5.3,5.4-8.3,7.7
	c-3,2.3-6.3,4.2-9.8,5.8c-6.5,3-13.5,4.5-20.6,4.5c-2.8,0.1-5.5,0-8.3-0.4c-11.1-1.4-21.7-5.1-31.3-10.8
	c-6.1-3.6-11.6-8.1-16.3-13.4l-0.8-0.9c-1.1-1.5-2.3-4-3.9-3.2c-1.1,0.5,0.5,2.4,1.1,3.4c0.2,0.3,0.3,0.7,0.4,1
	c0.2,0.4,0.5,0.8,0.7,1.2c18.3,29.6,60.4,42.9,91.8,21.1c2.8-2,5.5-4.2,8-6.6c2.4-2.4,4.6-5,6.6-7.7c6-8.4,10-18,11.8-28.1
	C349.4,68.3,349.7,64.8,349.8,61.3z"/>
<path class="st7" d="M238.7,52.9c1.5-8.3,5.4-16.1,11.1-22.3c6.6-7,15.3-11.8,24.8-13.5c4.7-0.9,9.4-1.2,14.2-0.8
	c20.3,1.3,39.9,16.1,43.4,37c2.3,14.2-1.7,28.8-11,39.8c-2.5,2.9-5.3,5.5-8.5,7.7c-30.2,20.9-73.5-1.8-74.8-38
	C237.9,59.4,238.1,56.1,238.7,52.9z"/>
<g class="st8">
	<path class="st5" d="M247.6,54.7c1.2-6.7,4.3-13,9-18c5.3-5.7,12.3-9.5,20-10.9c3.8-0.7,7.6-0.9,11.4-0.6
		c14,0.9,27.3,8.9,32.9,22.7c6.5,16.5,0.9,35.2-13.5,45.5c-24.4,16.9-59.4-1.4-60.4-30.7C247,60,247.1,57.3,247.6,54.7z"/>
</g>
<path class="st3" d="M259.7,57.1c1.6-8.6,7.6-15.7,15.9-18.6c3.7-1.3,7.6-1.8,11.5-1.4c13.9,0.6,24.7,12.3,24.1,26.1
	c-0.2,3.8-1.2,7.5-2.9,10.8c-1.8,3.7-4.6,6.9-8,9.3c-16.5,11.5-40.3-1-41-20.8C259.2,60.7,259.4,58.9,259.7,57.1z"/>
<path class="st5" d="M257.6,35.2c0.5-5.8,5.9-10,11.5-10.9c5.4-0.8,10.7,2.1,13.1,7c1.8,4.5,1.7,9.7-1.6,13.3
	c-3.6,4.1-9.2,5.7-14.5,4.1c-1.2-0.4-2.4-1-3.4-1.7c-1-0.7-1.9-1.5-2.7-2.4c-1.6-1.9-2.5-4.3-2.5-6.8
	C257.5,36.9,257.5,36,257.6,35.2z"/>
<path class="st5" d="M273.6,60.2c0.3-3.1,3.1-5.3,6.1-5.7c3.6-0.5,7,2,7.5,5.6c0.3,1.8-0.2,3.7-1.4,5.1c-1.9,2.2-4.9,3-7.6,2.2
	c-0.6-0.2-1.2-0.5-1.8-0.9c-0.5-0.4-1-0.8-1.5-1.3c-0.9-1-1.3-2.3-1.3-3.6C273.5,61.1,273.5,60.6,273.6,60.2z"/>
<path class="st9" d="M251.6,83.5c-1.4,3.1,1.2,5.7,3.8,6.8c3.4,1.5,9,1,10.3-3.1c0.8-2.5-1-4.6-3-5.8c-3.2-1.8-8-2.2-10.4,1
	C252,82.7,251.8,83.1,251.6,83.5z"/>
<path class="st9" d="M309.6,95.3c0.1,3.4-3.3,4.8-6.2,4.8c-3.7,0-8.7-2.6-8.3-6.9c0.3-2.6,2.7-3.9,5.1-4.1c3.6-0.4,8.2,1.1,9.2,5
	C309.6,94.5,309.6,94.9,309.6,95.3z"/>
<path class="st5" d="M294.8,24.9c-0.1-0.3-0.3-0.6-0.6-0.8c-0.3-0.2-0.7-0.1-0.9,0.2c0,0,0,0,0,0c-0.3,0.5-0.6,0.9-0.8,1.5
	c-0.2,0.5-0.4,1-0.5,1.6c-0.3,2-0.3,4-0.1,6c0,0.1,0.1,0.3,0.3,0.3c0.1,0,0.2,0,0.2-0.1l0,0l0,0C293.9,31,295.3,27.9,294.8,24.9z"/>
<path class="st5" d="M292.7,28.8c0.2-1,0.2-2-0.1-3c-0.4-0.8-1.2-1.3-2.1-1.3c-0.5-0.1-0.7,0.8-0.2,0.8c0.8,0,1.5,0.6,1.6,1.4
	c0,0.7,0,1.5-0.1,2.2C291.9,29.4,292.7,29.4,292.7,28.8L292.7,28.8z"/>
<path class="st5" d="M293.8,30.5c0.3-0.9,0.6-1.8,1-2.6c0.1-0.4,0.3-0.7,0.6-1c0.3-0.4,0.9-0.5,1.4-0.3c0.5,0.1,0.7-0.7,0.2-0.8
	c-2.5-0.7-3.2,2.5-3.8,4.3C292.9,30.6,293.6,31,293.8,30.5L293.8,30.5z"/>
<path class="st5" d="M248.5,47.3c-0.3,0-0.7,0.2-0.9,0.5c-0.2,0.2-0.2,0.6,0,0.8c0,0,0,0,0,0c0.4,0.4,0.8,0.7,1.3,1
	c0.5,0.3,1,0.5,1.5,0.7c1.9,0.7,4,1,6,1.2c0.2,0,0.3-0.1,0.3-0.2c0-0.1,0-0.2-0.1-0.2l0,0l0,0C254.4,49.2,251.6,47.3,248.5,47.3z"/>
<path class="st5" d="M252,50c-1-0.4-2.1-0.5-3.1-0.4c-0.8,0.3-1.4,1-1.6,1.8c-0.2,0.5,0.6,0.7,0.8,0.2c0.6-1.9,2.3-1.2,3.7-0.9
	C252.4,50.9,252.5,50.1,252,50L252,50z"/>
<path class="st5" d="M253.7,49.2c-0.7-0.4-1.4-0.8-2.1-1.3c-0.3-0.2-0.6-0.4-0.9-0.6c-0.5-0.4-0.6-1.1-0.3-1.6
	c0.2-0.5-0.5-0.9-0.7-0.4c-1.2,2.4,2,3.6,3.6,4.6C253.8,50.2,254.2,49.4,253.7,49.2z"/>
<path class="st5" d="M245.7,61.1c-0.3,0.2-0.5,0.4-0.6,0.8c-0.1,0.3,0,0.7,0.3,0.8c0,0,0,0,0,0c0.5,0.2,1,0.4,1.6,0.5
	c0.5,0.1,1.1,0.2,1.6,0.2c2,0,4.1-0.4,6-0.9c0.1,0,0.3-0.2,0.2-0.3c0-0.1-0.1-0.2-0.1-0.2l0,0C251.9,60.9,248.6,60.1,245.7,61.1z"/>
<path class="st5" d="M250,62.5c-1,0-2,0.2-2.9,0.6c-0.7,0.6-1,1.6-0.8,2.5c0,0.2,0.2,0.4,0.5,0.4c0.2,0,0.4-0.2,0.4-0.4l0,0
	c0-0.8-0.1-1.6,0.9-1.9c0.7-0.1,1.3-0.2,2-0.3C250.6,63.3,250.5,62.4,250,62.5L250,62.5z"/>
<path class="st5" d="M251.3,61.1c-0.9-0.2-1.7-0.3-2.6-0.5s-1.8-0.5-1.7-1.6c0-0.5-0.8-0.7-0.8-0.2c-0.2,0.9,0.3,1.9,1.1,2.3
	c1.2,0.5,2.5,0.7,3.8,0.8C251.7,62,251.8,61.1,251.3,61.1z"/>
<path class="st5" d="M248.3,74.7c-0.2,0.2-0.4,0.6-0.3,0.9c0,0.3,0.2,0.6,0.6,0.7c0,0,0,0,0,0c0.6,0,1.1,0,1.6-0.1
	c0.5-0.1,1.1-0.2,1.6-0.4c1.9-0.7,3.7-1.7,5.3-2.9c0.1-0.1,0.2-0.2,0.1-0.4c0-0.1-0.1-0.1-0.2-0.1l0,0
	C254,72.4,250.7,72.7,248.3,74.7z"/>
<path class="st5" d="M252.7,74.5c-1,0.3-1.8,0.9-2.5,1.6c-0.4,0.7-0.4,1.6,0,2.4c0.1,0.2,0.3,0.3,0.6,0.2c0.2-0.1,0.3-0.3,0.2-0.5
	c-0.3-0.8-0.4-1.6,0.4-2.1c0.6-0.4,1.2-0.7,1.8-0.9C253.7,74.9,253.2,74.3,252.7,74.5L252.7,74.5z"/>
<path class="st5" d="M253.6,72.7c-0.9,0.2-1.8,0.4-2.7,0.5c-0.4,0.1-0.8,0.1-1.2,0c-0.6-0.1-0.8-0.4-1-1s-0.9-0.2-0.8,0.3
	c0.2,1,1,1.7,2,1.7c1.3,0,2.5-0.2,3.7-0.5C254.1,73.5,254.1,72.7,253.6,72.7L253.6,72.7z"/>
<path class="st5" d="M314.2,89c0.3,0.1,0.7,0,1-0.2c0.3-0.2,0.4-0.5,0.3-0.8c0,0,0,0,0,0c-0.2-0.5-0.5-1-0.9-1.4
	c-0.3-0.4-0.7-0.8-1.1-1.2c-1.6-1.3-3.3-2.3-5.2-3.1c-0.1-0.1-0.3,0-0.4,0.1c0,0.1,0,0.2,0,0.2l0,0l0,0
	C309.3,85.2,311.3,87.9,314.2,89z"/>
<path class="st5" d="M311.8,85.2c0.8,0.7,1.7,1.1,2.7,1.4c0.9,0,1.7-0.4,2.2-1.1c0.3-0.4-0.3-1-0.6-0.6c-1.2,1.6-2.6,0.4-3.9-0.4
	C311.8,84.1,311.4,84.9,311.8,85.2L311.8,85.2z"/>
<path class="st5" d="M309.9,85.4c0.6,0.7,1.2,1.3,1.7,2c0.3,0.3,0.5,0.6,0.6,1c0.2,0.5,0,1.1-0.4,1.4c-0.4,0.4,0.2,0.9,0.6,0.6
	c1.9-1.9-0.6-4-1.9-5.5C310.2,84.5,309.5,84.9,309.9,85.4L309.9,85.4z"/>
<path class="st5" d="M321.4,78.1c0.3,0,0.7-0.2,0.9-0.5c0.2-0.2,0.3-0.6,0-0.9c0,0,0,0,0,0c-0.4-0.4-0.8-0.8-1.3-1.1
	c-0.5-0.3-0.9-0.6-1.5-0.8c-1.9-0.7-3.9-1.2-5.9-1.3c-0.1,0-0.3,0.1-0.3,0.2c0,0.1,0,0.2,0.1,0.2l0,0l0,0
	C315.6,76,318.3,78,321.4,78.1z"/>
<path class="st5" d="M318,75.3c0.9,0.4,1.9,0.6,2.9,0.5c0.9-0.2,1.6-0.9,1.8-1.8c0.2-0.5-0.6-0.9-0.7-0.4c-0.2,0.8-0.8,1.3-1.6,1.3
	c-0.8-0.1-1.5-0.2-2.2-0.5C317.6,74.3,317.4,75.1,318,75.3L318,75.3z"/>
<path class="st5" d="M316.2,76.1c0.7,0.4,1.4,0.8,2.1,1.3c0.4,0.2,0.7,0.5,1,0.8c0.4,0.4,0.4,1,0.1,1.5c-0.1,0.2,0,0.5,0.2,0.6
	c0.2,0.1,0.5,0,0.6-0.2c1.2-2.4-1.9-3.7-3.5-4.7C316.2,75.1,315.8,75.8,316.2,76.1L316.2,76.1z"/>
<path class="st5" d="M324.8,65.1c0.3-0.1,0.6-0.4,0.7-0.8c0.1-0.3,0-0.7-0.3-0.8c0,0,0,0,0,0c-0.5-0.2-1-0.4-1.5-0.6
	c-0.5-0.1-1.1-0.2-1.6-0.2c-2,0-4,0.2-6,0.8c-0.1,0-0.3,0.1-0.2,0.3c0,0.1,0.1,0.2,0.1,0.2l0,0l0,0C318.6,65.1,321.9,66,324.8,65.1z
	"/>
<path class="st5" d="M320.6,63.6c1,0,2-0.1,3-0.5c0.8-0.5,1.2-1.4,1.1-2.3c0-0.5-0.8-0.5-0.8,0.1c0.1,0.8-0.4,1.5-1.2,1.8
	c-0.7,0.1-1.4,0.2-2.1,0.2c-0.2,0-0.4,0.3-0.3,0.5C320.2,63.4,320.4,63.5,320.6,63.6z"/>
<path class="st5" d="M319.2,64.9c0.9,0.2,1.7,0.3,2.6,0.6s1.8,0.6,1.6,1.7c-0.1,0.5,0.8,0.7,0.8,0.2c0.2-0.9-0.2-1.9-1.1-2.3
	c-1.2-0.5-2.5-0.8-3.8-1c-0.2,0-0.4,0.1-0.5,0.4C318.9,64.6,319,64.8,319.2,64.9L319.2,64.9z"/>
<path class="st5" d="M323.6,51.5c0.3-0.3,0.4-0.6,0.4-1c0-0.3-0.2-0.7-0.6-0.7c-0.5,0-1.1,0-1.6,0.1c-0.5,0.1-1.1,0.2-1.6,0.4
	c-1.9,0.7-3.7,1.7-5.3,2.9c-0.1,0.1-0.2,0.2-0.1,0.4c0,0.1,0.1,0.1,0.2,0.1h0C317.8,53.9,321.2,53.5,323.6,51.5z"/>
<path class="st5" d="M319.1,51.7c1-0.3,1.9-0.9,2.5-1.7c0.4-0.7,0.5-1.7,0.1-2.4c-0.2-0.5-1-0.2-0.8,0.3c0.8,1.9-1,2.5-2.3,3.1
	C318.2,51.2,318.7,51.9,319.1,51.7z"/>
<path class="st5" d="M318.3,53.5c0.9-0.2,1.8-0.4,2.7-0.5c0.4-0.1,0.8-0.1,1.2,0c0.6,0.1,0.8,0.5,0.9,1s0.9,0.3,0.8-0.3
	c-0.7-2.6-3.8-1.5-5.7-1.1C317.7,52.7,317.7,53.6,318.3,53.5L318.3,53.5z"/>
<path class="st5" d="M317.5,39.1c0.1-0.3,0.1-0.7,0-1c-0.1-0.3-0.4-0.5-0.8-0.4c0,0,0,0,0,0c-0.5,0.1-1,0.4-1.5,0.6
	c-0.5,0.3-0.9,0.6-1.4,0.9c-1.5,1.3-2.9,2.9-4,4.6c-0.1,0.1-0.1,0.3,0,0.4c0.1,0.1,0.2,0.1,0.2,0.1l0,0
	C312.9,43.3,315.9,41.8,317.5,39.1z"/>
<path class="st5" d="M313.4,40.8c0.8-0.6,1.4-1.4,1.8-2.3c0.2-0.9-0.1-1.8-0.8-2.4c-0.4-0.4-0.9,0.2-0.6,0.6
	c1.3,1.5-0.1,2.6-1.1,3.7C312.4,40.7,313,41.3,313.4,40.8L313.4,40.8z"/>
<path class="st5" d="M313.3,42.8c0.7-0.4,1.4-0.8,2.1-1.2c0.3-0.2,0.7-0.3,1-0.5c0.6-0.2,1.2,0,1.5,0.6c0.3,0.4,1,0,0.7-0.5
	c-1.5-2.2-4.1-0.1-5.8,0.9C312.4,42.3,312.8,43.1,313.3,42.8L313.3,42.8z"/>
<path class="st5" d="M307.3,30c0-0.4-0.1-0.7-0.4-1c-0.2-0.3-0.6-0.3-0.9-0.1c0,0,0,0,0,0c-0.4,0.3-0.9,0.7-1.2,1.1
	c-0.4,0.4-0.7,0.9-1,1.3c-1,1.8-1.7,3.7-2.2,5.7c-0.1,0.1,0,0.3,0.1,0.4c0.1,0,0.2,0,0.3,0l0,0l0,0C304.4,35.5,306.7,33.1,307.3,30z
	"/>
<path class="st5" d="M304,33.1c0.6-0.9,0.9-1.9,0.9-3c-0.2-0.9-0.7-1.6-1.5-1.9c-0.2-0.1-0.5,0-0.5,0.3c-0.1,0.2,0,0.4,0.2,0.5
	c1.7,0.9,0.8,2.4,0.3,3.8C303,33.2,303.8,33.6,304,33.1L304,33.1z"/>
<path class="st5" d="M304.5,34.9c0.5-0.6,1-1.2,1.5-1.8c0.7-0.8,1.4-1.6,2.4-0.8c0.4,0.3,1-0.3,0.5-0.6c-0.8-0.7-2-0.7-2.7,0
	c-0.9,0.8-1.7,1.7-2.4,2.7C303.6,34.8,304.2,35.3,304.5,34.9L304.5,34.9z"/>
<path class="st5" d="M323.6,110c-0.3,1.7-2.6,3.1-4,1.5c-1-1.1-0.9-2.7,0.2-3.7c0.1-0.1,0.3-0.2,0.4-0.3c1-0.7,2.4-0.5,3.1,0.5
	c0,0,0,0,0,0.1C323.7,108.6,323.8,109.3,323.6,110z"/>
<path class="st3" d="M271.9,94.5c0.7,3.5,3.3,6.2,6.7,7c3.8,0.7,6.6-1.7,8.4-4.8c1-1.6-1.7-3-2.6-1.3c-1.2,2-2.9,3.8-5.5,3.2
	c-2.4-0.5-3.8-2.8-4.3-5c-0.3-0.8-1.1-1.2-1.9-0.9C272.1,92.9,271.6,93.8,271.9,94.5L271.9,94.5z"/>
<path class="st10" d="M344.5,82.8l0.8-2.4c0.1-0.4,0.6-0.6,1-0.5l26,9c0.4,0.1,0.6,0.6,0.5,1l-0.8,2.4c-0.1,0.4-0.6,0.6-1,0.5l-26-9
	C344.6,83.6,344.4,83.1,344.5,82.8z"/>
<path class="st2" d="M375.8,79.8c2.1,0.5,3.8,1.8,4.9,3.6c0.9,1.9,1.1,4.1,0.5,6.2c-0.8,3.7-2.1,8.5-5.6,10.5
	c-1.7,1-3.7,1.2-5.5,0.7c-4.3-0.8-7.1-4.9-6.3-9.2c0-0.3,0.1-0.5,0.2-0.8c0.9-3.6,2.4-8,5.5-10.2C371.3,79.4,373.6,79.1,375.8,79.8z
	"/>
<path class="st2" d="M345.3,69.3c2.1,0.5,3.8,1.8,4.9,3.6c0.9,1.9,1.1,4.1,0.5,6.2c-0.8,3.7-2.1,8.5-5.6,10.5
	c-1.7,0.9-3.7,1.2-5.5,0.7c-4.3-0.8-7.1-4.9-6.3-9.2c0-0.3,0.1-0.5,0.2-0.8c0.9-3.6,2.4-8,5.5-10.2C340.9,69,343.2,68.7,345.3,69.3z
	"/>
<path class="st3" d="M211,60.7c-0.3,0-0.6,0-0.9-0.1c-0.3-0.1-0.6-0.2-0.8-0.3c-1.6-0.7-2.6-2.3-2.7-4c0-0.3,0-0.5,0.1-0.8
	c0.1-1.7,1.6-3,3.3-2.9c2.6,0.2,3.4,3.4,2.5,5.6c-0.1,0.4-0.3,0.7-0.5,1.1c-0.2,0.3-0.4,0.6-0.7,0.9L211,60.7z"/>
<path class="st3" d="M211.1,59.6c-0.2,0-0.5,0-0.7-0.1c0.2,0-0.1,0-0.1,0l-0.3-0.1c0,0-0.3-0.2-0.1,0l-0.2-0.1
	c-0.1-0.1-0.3-0.2-0.4-0.3c-0.1,0-0.1-0.1-0.2-0.2c0,0-0.2-0.2-0.1,0c-0.1-0.1-0.2-0.2-0.4-0.3c-0.1-0.1-0.2-0.2-0.3-0.3l-0.1-0.2
	c0.1,0.2,0-0.1-0.1-0.1c-0.1-0.1-0.2-0.3-0.2-0.4c0-0.1,0-0.1-0.1-0.2c0.1,0.2,0,0,0-0.1c0-0.2-0.1-0.3-0.1-0.5c0,0,0-0.3,0-0.1
	c0-0.1,0-0.3,0-0.4c0-0.2,0-0.3,0.1-0.5s0-0.2,0-0.3c-0.1,0.3,0,0,0,0c0-0.2,0.1-0.3,0.2-0.5c-0.1,0.3,0,0,0,0
	c0-0.1,0.1-0.1,0.1-0.2l0.1-0.2c0.2-0.2-0.2,0.1,0,0l0.4-0.3c0.2-0.2-0.2,0.1,0.1,0l0.2-0.1l0.2-0.1l0.1-0.1c-0.1,0-0.1,0,0,0
	l0.5-0.1c0.3,0-0.2,0,0.1,0h0.2h0.2c0.3,0-0.2-0.1,0,0s0.4,0.1,0.5,0.2l-0.1-0.1l0.1,0.1l0.2,0.1l0.1,0.1c0.2,0.1-0.1-0.2,0,0
	c0.1,0.1,0.2,0.2,0.3,0.3c0,0,0.2,0.2,0,0c0.1,0.1,0.1,0.2,0.1,0.3c0.1,0.1,0.1,0.2,0.2,0.3c0,0.1,0.1,0.1,0.1,0.2c-0.1-0.3,0,0,0,0
	c0.1,0.3,0.1,0.6,0.2,0.9c0-0.3,0,0,0,0s0,0.2,0,0.3c0,0.2,0,0.4,0,0.6c0,0,0,0.1,0,0.2c0,0,0,0.1,0,0.2c0-0.2,0-0.2,0,0
	s-0.1,0.3-0.1,0.5s-0.2,0.5-0.3,0.7c0,0-0.1,0.2,0,0c-0.1,0.1-0.1,0.3-0.2,0.4c-0.3,0.4-0.6,0.8-1,1.2c-0.3,0.4-0.2,1.1,0.2,1.4
	c0,0,0,0,0.1,0.1c0.5,0.3,1.1,0.2,1.4-0.3l0.1-0.1c0.1-0.1-0.1,0.1,0,0s0.2-0.2,0.3-0.3c0.2-0.2,0.4-0.5,0.6-0.7
	c0.3-0.5,0.5-1,0.7-1.5c0.3-0.7,0.4-1.5,0.4-2.3c0-1.7-0.8-3.2-2.1-4.2c-1.6-0.9-3.6-0.6-4.9,0.7c-1.3,1.5-1.7,3.6-0.9,5.4
	c0.8,2,2.8,3.4,5,3.5c0.6,0,1.1-0.4,1.1-1c0-0.6-0.4-1.1-1-1.1L211.1,59.6z"/>
<path class="st3" d="M213.6,58.3c0.1-0.2,0.1-0.3,0.2-0.4l0.1-0.1l-0.1,0.1c-0.1,0-0.4,0.1-0.4,0.1h0.1c0.1,0,0,0,0,0l0,0h0.1
	c0.2,0-0.1,0-0.1,0h0.1c0.1,0.1,0.1,0,0,0s-0.1-0.1,0,0l0.1,0.1c0,0-0.1-0.2-0.1-0.3c0,0.2,0-0.2,0-0.1s0-0.1,0,0s0,0.2-0.1,0.2
	s0,0.1,0,0c-0.1,0.1-0.2,0.3-0.3,0.4c-0.1,0.1-0.1,0.1,0,0c-0.1,0.1-0.1,0.1-0.2,0.2c-0.1,0.1-0.2,0.2-0.3,0.3l-0.1,0.1
	c0.1-0.1,0,0-0.1,0l-0.4,0.2c-0.6,0.3-1.2,0.6-1.8,0.8l0.9,1.9c0.8-0.3,1.5-1,1.9-1.8c0.2-0.4,0.3-0.7,0.5-1.1
	c0.1-0.2,0.1-0.3,0.2-0.5c0.1-0.3,0.1-0.6,0-0.9c-0.1-0.5-0.6-0.9-1.1-0.8c0,0-0.1,0-0.1,0c-0.6,0.1-0.9,0.7-0.8,1.2
	c0,0.3,0-0.2,0-0.2c0,0.1,0,0.1,0,0.2l-0.1,0.4c-0.1,0.3-0.2,0.6-0.4,0.9c0.1-0.1,0,0,0,0l-0.1,0.2c0,0.1-0.1,0.1,0,0
	c0,0-0.1,0.1-0.1,0.1c0,0-0.1,0.1-0.1,0.1c-0.2,0.2,0.1,0,0,0s-0.3,0.1-0.4,0.2c-0.5,0.2-0.7,0.8-0.5,1.3c0,0,0,0,0,0.1
	c0.3,0.5,0.9,0.7,1.4,0.5c0.8-0.3,1.6-0.7,2.3-1.1c0.9-0.5,1.5-1.3,1.9-2.2c0.2-0.5,0.2-1,0-1.5c-0.2-0.4-0.6-0.8-1-1
	c-0.5-0.2-1-0.2-1.5,0c-0.5,0.3-0.9,0.7-1.1,1.2c-0.3,0.5-0.2,1.1,0.3,1.4C212.8,58.7,213.3,58.6,213.6,58.3z"/>
<path class="st10" d="M194.4,56.2l0.2-2.6c0-0.4,0.4-0.7,0.8-0.7l27.5,1.9c0.4,0,0.7,0.4,0.7,0.8l-0.2,2.6c0,0.4-0.4,0.7-0.8,0.7
	L195.1,57C194.7,57,194.4,56.6,194.4,56.2z"/>
<path class="st2" d="M227.9,45.5c-2.1-0.3-4.2,0.2-5.9,1.4c-1.6,1.4-2.6,3.4-2.9,5.5c-0.7,3.7-1.3,8.6,1,11.9
	c1.2,1.5,2.9,2.5,4.8,2.8c4.3,0.9,8.5-1.8,9.4-6c0.1-0.3,0.1-0.5,0.1-0.8c0.6-3.6,0.9-8.2-1.1-11.5
	C232.1,46.9,230.1,45.7,227.9,45.5z"/>
<path class="st2" d="M195.7,43.3c-2.1-0.3-4.2,0.2-5.9,1.4c-1.6,1.4-2.6,3.4-2.9,5.5c-0.7,3.7-1.3,8.6,1,11.9
	c1.2,1.5,2.9,2.5,4.8,2.8c4.3,0.9,8.5-1.8,9.4-6.1c0.1-0.2,0.1-0.5,0.1-0.7c0.6-3.6,0.9-8.3-1.1-11.5
	C199.9,44.7,197.9,43.5,195.7,43.3z"/>
</svg>
